<svg xmlns="http://www.w3.org/2000/svg" width="72.226" height="31.114" viewBox="0 0 72.226 31.114"><g data-name="Group 70" fill="#cc161c"><path data-name="Path 181" d="M46.771 0a2.467 2.467 0 1 0 2.47 2.467A2.468 2.468 0 0 0 46.771 0"/><g data-name="Group 69"><path data-name="Path 182" d="M63.038 6.853a9.2 9.2 0 0 0-9.187 9.187v12.83a2.244 2.244 0 0 0 4.488 0v-4.95a9.182 9.182 0 1 0 4.7-17.068zm0 13.888a4.7 4.7 0 1 1 4.7-4.7 4.7 4.7 0 0 1-4.7 4.7z"/><path data-name="Path 183" d="M33.143 6.868a9.115 9.115 0 0 0-4.808 1.374V2.668a2.243 2.243 0 1 0-4.486 0v13.38a2.22 2.22 0 0 0 .149.783 9.184 9.184 0 1 0 9.145-9.97zm0 13.887a4.7 4.7 0 1 1 4.7-4.7 4.708 4.708 0 0 1-4.7 4.698z"/><path data-name="Path 184" d="M46.775 6.883a2.243 2.243 0 0 0-2.245 2.242v7.672c0 2.718.384 6.529 3.689 8.192a2.244 2.244 0 0 0 2.016-4.009c-.3-.151-1.218-.613-1.218-4.183V9.125a2.242 2.242 0 0 0-2.242-2.242"/><path data-name="Path 185" d="M17.082 23.639L0 6.557h17.082z"/></g></g></svg>